<svg id="user-3-line" xmlns="http://www.w3.org/2000/svg" width="22" height="22" viewBox="0 0 22 22">
  <path id="Path_3" data-name="Path 3" d="M0,0H22V22H0Z" fill="none"/>
  <path id="Path_4" data-name="Path 4" d="M19.377,20.516H17.454V18.658a2.837,2.837,0,0,0-2.883-2.788H8.805a2.837,2.837,0,0,0-2.883,2.788v1.859H4V18.658a4.728,4.728,0,0,1,4.805-4.647h5.766a4.728,4.728,0,0,1,4.805,4.647Zm-7.688-8.364A5.674,5.674,0,0,1,5.922,6.576,5.674,5.674,0,0,1,11.688,1a5.674,5.674,0,0,1,5.766,5.576A5.674,5.674,0,0,1,11.688,12.152Zm0-1.859a3.782,3.782,0,0,0,3.844-3.717,3.782,3.782,0,0,0-3.844-3.717A3.782,3.782,0,0,0,7.844,6.576,3.782,3.782,0,0,0,11.688,10.293Z" transform="translate(-0.688 -0.172)" fill="#0f2557"/>
</svg>
