<?xml version="1.0" encoding="iso-8859-1"?>
<!-- Generator: Adobe Illustrator 19.0.0, SVG Export Plug-In . SVG Version: 6.00 Build 0)  -->
<svg version="1.1" id="Capa_1" xmlns="http://www.w3.org/2000/svg" xmlns:xlink="http://www.w3.org/1999/xlink" x="0px" y="0px"
	 viewBox="0 0 512 512" style="enable-background:new 0 0 512 512;" xml:space="preserve">
<path style="fill:#FD9822;" d="M437.02,74.98C388.667,26.629,324.38,0,256,0S123.333,26.629,74.98,74.98S0,187.62,0,256
	s26.629,132.667,74.98,181.02S187.62,512,256,512s132.667-26.629,181.02-74.98S512,324.38,512,256S485.371,123.333,437.02,74.98z"/>
<path style="fill:#E2780E;" d="M437.02,437.02C485.371,388.667,512,324.38,512,256s-26.629-132.667-74.98-181.02S324.38,0,256,0v512
	C324.38,512,388.667,485.371,437.02,437.02z"/>
<path style="fill:#FFCA2B;" d="M256,64C150.131,64,64,150.131,64,256s86.131,192,192,192s192-86.131,192-192S361.869,64,256,64z"/>
<path style="fill:#F4AF03;" d="M448,256c0-105.869-86.131-192-192-192v384C361.869,448,448,361.869,448,256z"/>
<path style="fill:#93480E;" d="M329.846,206.769c0-24.431-19.876-44.308-44.308-44.308h-14.769v-24.615
	c0-8.157-6.613-14.769-14.769-14.769s-14.769,6.613-14.769,14.769v24.615h-44.308c-8.157,0-14.769,6.613-14.769,14.769V256v78.769
	c0,8.157,6.613,14.769,14.769,14.769h44.308v24.615c0,8.157,6.613,14.769,14.769,14.769s14.769-6.613,14.769-14.769v-24.615h14.769
	c24.431,0,44.308-19.876,44.308-44.308v-19.692c0-11.34-4.287-21.693-11.318-29.538c7.032-7.845,11.318-18.199,11.318-29.538
	V206.769z M211.692,192h73.846c8.144,0,14.769,6.625,14.769,14.769v19.692c0,8.144-6.625,14.769-14.769,14.769h-73.846V192z
	 M300.308,305.231c0,8.144-6.625,14.769-14.769,14.769h-73.846v-49.231h73.846c8.144,0,14.769,6.625,14.769,14.769V305.231z"/>
<path style="fill:#7C3200;" d="M285.538,192c8.144,0,14.769,6.625,14.769,14.769v19.692c0,8.144-6.625,14.769-14.769,14.769H256
	v29.538h29.538c8.144,0,14.769,6.625,14.769,14.769v19.692c0,8.144-6.625,14.769-14.769,14.769H256v68.923
	c8.157,0,14.769-6.613,14.769-14.769v-24.615h14.769c24.431,0,44.308-19.876,44.308-44.308v-19.692
	c0-11.34-4.287-21.693-11.318-29.538c7.032-7.845,11.318-18.199,11.318-29.538v-19.692c0-24.431-19.876-44.308-44.308-44.308
	h-14.769v-24.615c0-8.157-6.613-14.769-14.769-14.769V192H285.538z"/>
<g>
</g>
<g>
</g>
<g>
</g>
<g>
</g>
<g>
</g>
<g>
</g>
<g>
</g>
<g>
</g>
<g>
</g>
<g>
</g>
<g>
</g>
<g>
</g>
<g>
</g>
<g>
</g>
<g>
</g>
</svg>
