<svg height="512" viewBox="0 0 512 512" width="512" xmlns="http://www.w3.org/2000/svg"><g><path d="m88 304v192h336v-192zm40 168a16 16 0 1 1 16-16 16 16 0 0 1 -16 16zm0-112a16 16 0 1 1 16-16 16 16 0 0 1 -16 16zm256 112a16 16 0 1 1 16-16 16 16 0 0 1 -16 16zm0-112a16 16 0 1 1 16-16 16 16 0 0 1 -16 16z" fill="#57a4ff"/><g fill="#004fac"><path d="m424 296h-24v-144a143.977 143.977 0 0 0 -144-144c-79.4 0-144 64.6-144 144v144h-24a8 8 0 0 0 -8 8v192a8 8 0 0 0 8 8h336a8 8 0 0 0 8-8v-192a8 8 0 0 0 -8-8zm-296-144a128 128 0 1 1 256 0v144h-32v-144a96 96 0 0 0 -192 0v144h-32zm208 0v144h-160v-144a80 80 0 0 1 160 0zm80 336h-320v-176h320z"/><path d="m128 320a24 24 0 1 0 24 24 24.027 24.027 0 0 0 -24-24zm0 32a8 8 0 1 1 8-8 8.009 8.009 0 0 1 -8 8z"/><path d="m128 432a24 24 0 1 0 24 24 24.027 24.027 0 0 0 -24-24zm0 32a8 8 0 1 1 8-8 8.009 8.009 0 0 1 -8 8z"/><path d="m360 344a24 24 0 1 0 24-24 24.027 24.027 0 0 0 -24 24zm32 0a8 8 0 1 1 -8-8 8.009 8.009 0 0 1 8 8z"/><path d="m384 432a24 24 0 1 0 24 24 24.027 24.027 0 0 0 -24-24zm0 32a8 8 0 1 1 8-8 8.009 8.009 0 0 1 -8 8z"/></g></g></svg>